<svg xmlns="http://www.w3.org/2000/svg" viewBox="0 0 1200 700" role="img" aria-labelledby="title desc">
  <title id="title">OpenClaw Reliability Control Plane</title>
  <desc id="desc">OpenClaw system components, Acme guards, and Acme operator tools with OCTriageUnit as the operator entrypoint to evidence-first triage.</desc>
  <defs>
    <style>
      .t { font-family: -apple-system, BlinkMacSystemFont, "Segoe UI", Roboto, "Helvetica Neue", Arial, sans-serif; fill: #e5e7eb; }
      .title { font-size: 22px; font-weight: 700; }
      .label { font-size: 14px; font-weight: 600; }
      .small { font-size: 12px; font-weight: 500; fill: #9ca3af; }
      .tiny { font-size: 10.5px; font-weight: 700; fill: #a1a1aa; letter-spacing: 0.08em; }
      .band { fill: #0f172a; opacity: 0.46; stroke: #334155; stroke-width: 1.5; vector-effect: non-scaling-stroke; rx: 14; ry: 14; }
      .band-label { font-size: 12px; font-weight: 600; fill: #cbd5e1; }
      .system { fill: #111827; stroke: #64748b; stroke-width: 2; vector-effect: non-scaling-stroke; rx: 12; ry: 12; }
      .guard { fill: #0d1a2b; stroke: #3b82f6; stroke-width: 2.1; vector-effect: non-scaling-stroke; filter: drop-shadow(0 0 4px rgba(59,130,246,0.18)); rx: 12; ry: 12; }
      .tool { fill: #1f2937; stroke: #f59e0b; stroke-width: 2.5; vector-effect: non-scaling-stroke; filter: drop-shadow(0 0 8px rgba(245,158,11,0.26)); rx: 12; ry: 12; }
      .badge { fill: #27272a; stroke: #52525b; stroke-width: 1; vector-effect: non-scaling-stroke; rx: 8; ry: 8; }
      .badge-guard { fill: #14263f; stroke: #3b82f6; stroke-width: 1; vector-effect: non-scaling-stroke; rx: 8; ry: 8; }
      .badge-tool { fill: #3f2a0c; stroke: #f59e0b; stroke-width: 1; vector-effect: non-scaling-stroke; rx: 8; ry: 8; }
      .line { stroke: #e5e7eb; stroke-width: 2; fill: none; vector-effect: non-scaling-stroke; marker-end: url(#arr); }
      .inspect { stroke: #cbd5e1; stroke-width: 1.5; stroke-dasharray: 6 5; fill: none; vector-effect: non-scaling-stroke; marker-end: url(#arr-soft); }
      .operator-run { stroke: #f5f5f5; stroke-width: 1.4; fill: none; vector-effect: non-scaling-stroke; marker-end: url(#arr-soft); }
      .legend-label { font-size: 10px; font-weight: 600; fill: #a1a1aa; }
      .ok { fill: #22c55e; }
      .warn { fill: #f59e0b; }
      .deg { fill: #ef4444; }
    </style>
    <marker id="arr" viewBox="0 0 10 10" refX="9" refY="5" markerWidth="7" markerHeight="7" orient="auto-start-reverse">
      <path d="M0,0 L10,5 L0,10 z" fill="#e5e7eb" />
    </marker>
    <marker id="arr-soft" viewBox="0 0 10 10" refX="9" refY="5" markerWidth="6" markerHeight="6" orient="auto-start-reverse">
      <path d="M0,0 L10,5 L0,10 z" fill="#cbd5e1" />
    </marker>
  </defs>

  <rect x="0" y="0" width="1200" height="700" fill="#020617" />
  <text class="t title" x="60" y="56">OpenClaw Reliability Control Plane</text>
  <text class="t small" x="60" y="78">Signals → Evidence → Triage → Recovery</text>

  <rect class="band" x="40" y="120" width="250" height="500" />
  <text class="t band-label" x="165" y="116" text-anchor="middle">System State</text>
  <rect class="band" x="320" y="120" width="250" height="500" />
  <text class="t band-label" x="445" y="116" text-anchor="middle">Protection Surfaces</text>
  <rect class="band" x="600" y="120" width="300" height="500" />
  <text class="t band-label" x="750" y="116" text-anchor="middle">Operator Response</text>
  <rect class="band" x="930" y="120" width="230" height="500" />
  <text class="t band-label" x="1045" y="116" text-anchor="middle">Human Control</text>

  <rect class="system" x="70" y="180" width="190" height="64" />
  <text class="t label" x="98" y="218">BOOT.md</text>
  <rect class="system" x="70" y="280" width="190" height="64" />
  <text class="t label" x="98" y="318">DIGEST.md</text>
  <rect class="system" x="70" y="380" width="190" height="64" />
  <text class="t label" x="98" y="418">Digest Builder</text>
  <rect class="badge" x="210" y="386" width="44" height="18" />
  <text class="t tiny" x="218" y="399">v0.1.x</text>

  <rect class="guard" x="350" y="180" width="190" height="64" />
  <text class="t label" x="378" y="218">Drift Guard</text>
  <rect class="badge-guard" x="486" y="186" width="48" height="18" />
  <text class="t tiny" x="493" y="199">GUARD</text>

  <rect class="guard" x="350" y="280" width="190" height="64" />
  <text class="t label" x="378" y="312">Sentinel</text>
  <text class="t small" x="378" y="330">(Disk Pressure)</text>
  <rect class="badge-guard" x="486" y="286" width="48" height="18" />
  <text class="t tiny" x="493" y="299">GUARD</text>

  <rect class="guard" x="350" y="380" width="190" height="64" />
  <text class="t label" x="384" y="418">Watchdog</text>
  <rect class="badge-guard" x="486" y="386" width="48" height="18" />
  <text class="t tiny" x="493" y="399">GUARD</text>

  <rect class="system" x="350" y="480" width="190" height="64" />
  <text class="t label" x="378" y="518">Disk/Workspace</text>
  <rect class="system" x="350" y="556" width="190" height="52" />
  <text class="t label" x="403" y="587">Alerts</text>

  <rect class="system" x="655" y="180" width="190" height="64" />
  <text class="t label" x="683" y="218">Agent Session</text>

  <rect class="tool" x="655" y="280" width="190" height="64" />
  <text class="t label" x="683" y="318">OCTriageUnit</text>
  <rect class="badge-tool" x="785" y="286" width="52" height="18" />
  <text class="t tiny" x="795" y="299">TOOL</text>
  <rect class="badge" x="789" y="310" width="48" height="18" />
  <text class="t tiny" x="797" y="323">v0.1.5</text>

  <rect class="system" x="655" y="380" width="190" height="64" />
  <text class="t label" x="683" y="418">Proof Bundle</text>

  <rect class="tool" x="655" y="480" width="190" height="64" />
  <text class="t label" x="699" y="518">Agent911</text>
  <rect class="badge-tool" x="791" y="486" width="48" height="18" />
  <text class="t tiny" x="801" y="499">TOOL</text>

  <rect class="system" x="960" y="180" width="170" height="64" />
  <text class="t label" x="1005" y="218">Recovery</text>
  <rect class="system" x="960" y="280" width="170" height="64" />
  <text class="t label" x="995" y="318">Commander</text>
  <rect class="system" x="960" y="380" width="170" height="64" />
  <text class="t label" x="1006" y="418">Operator</text>
  <rect class="system" x="960" y="480" width="170" height="64" />
  <text class="t small" x="992" y="507">Channels</text>
  <text class="t tiny" x="970" y="525">Discord / Telegram / Web</text>
  <rect class="system" x="960" y="556" width="170" height="52" />
  <text class="t label" x="1012" y="587">Agents</text>

  <path class="line" d="M260 212 H300 V158 H655 V212" />
  <path class="line" d="M260 312 H300 V170 H655 V212" />
  <path class="line" d="M165 380 V344" />
  <path class="line" d="M350 212 H312 V412 H260" />
  <path class="line" d="M350 312 H322 V312 H260" />

  <path class="inspect" d="M750 244 V280" />
  <path class="line" d="M750 344 V380" />
  <path class="line" d="M445 444 V480" />
  <path class="line" d="M540 312 H556 V582 H540" />

  <path class="line" d="M845 512 H920 V212 H960" />
  <path class="line" d="M1045 344 V380" />
  <path class="line" d="M1045 544 V556" />
  <path class="operator-run" d="M960 312 H910 V312 H845" />
  <text class="t small" x="858" y="300">Operator runs</text>

  <g transform="translate(630,640)">
    <rect class="badge" x="0" y="0" width="276" height="48" />
    <text class="t legend-label" x="10" y="14">Legend</text>
    <rect class="system" x="10" y="21" width="20" height="14" />
    <text class="t legend-label" x="36" y="32">System Component</text>
    <rect class="guard" x="136" y="21" width="20" height="14" />
    <text class="t legend-label" x="162" y="32">Acme Guard</text>
    <rect class="tool" x="220" y="21" width="20" height="14" />
    <text class="t legend-label" x="246" y="32">Operator Tool</text>
  </g>

  <g transform="translate(930,640)">
    <rect class="badge" x="0" y="0" width="230" height="42" />
    <circle class="ok" cx="18" cy="21" r="5" />
    <text class="t tiny" x="30" y="25">OK</text>
    <circle class="warn" cx="88" cy="21" r="5" />
    <text class="t tiny" x="100" y="25">WARN</text>
    <circle class="deg" cx="166" cy="21" r="5" />
    <text class="t tiny" x="178" y="25">DEGRADED</text>
  </g>
</svg>
